<?xml version="1.0" encoding="iso-8859-1"?>
<!-- Uploaded to: SVG Repo, www.svgrepo.com, Generator: SVG Repo Mixer Tools -->
<svg height="80px" width="80px" version="1.1" id="Layer_1" xmlns="http://www.w3.org/2000/svg" xmlns:xlink="http://www.w3.org/1999/xlink" 
	 viewBox="0 0 512 512" xml:space="preserve">
<path style="fill:#F1ECDE;" d="M256,8.17c-63.172,0-114.383,51.211-114.383,114.383v343.149c0,21.057,17.07,38.128,38.128,38.128
	s38.128-17.07,38.128-38.128c0,21.057,17.07,38.128,38.128,38.128s38.128-17.07,38.128-38.128c0,21.057,17.07,38.128,38.128,38.128
	s38.128-17.07,38.128-38.128V122.553C370.383,59.381,319.172,8.17,256,8.17z"/>
<g>
	<circle style="fill:#440852;" cx="288.681" cy="384" r="8.17"/>
	<circle style="fill:#440852;" cx="321.362" cy="416.681" r="8.17"/>
	<path style="fill:#440852;" d="M256,0c-67.576,0-122.553,54.977-122.553,122.553v155.234c0,4.512,3.658,8.17,8.17,8.17
		s8.17-3.658,8.17-8.17V122.553C149.787,63.987,197.434,16.34,256,16.34s106.213,47.646,106.213,106.213v343.149
		c0,16.519-13.438,29.957-29.957,29.957s-29.957-13.438-29.957-29.957c0-4.512-3.658-8.17-8.17-8.17c-4.512,0-8.17,3.658-8.17,8.17
		c0,16.519-13.438,29.957-29.957,29.957s-29.957-13.438-29.957-29.957c0-4.512-3.658-8.17-8.17-8.17s-8.17,3.658-8.17,8.17
		c0,16.519-13.438,29.957-29.957,29.957s-29.957-13.438-29.957-29.957V310.468c0-4.512-3.658-8.17-8.17-8.17s-8.17,3.658-8.17,8.17
		v155.234c0,25.529,20.769,46.298,46.298,46.298c15.796,0,29.769-7.951,38.128-20.061C226.231,504.049,240.204,512,256,512
		c15.796,0,29.769-7.951,38.128-20.061C302.486,504.049,316.46,512,332.255,512c25.529,0,46.298-20.769,46.298-46.298V122.553
		C378.553,54.977,323.576,0,256,0z"/>
	<path style="fill:#440852;" d="M256,198.809c18.02,0,32.681-14.661,32.681-32.681c0-4.512-3.658-8.17-8.17-8.17
		c-4.512,0-8.17,3.658-8.17,8.17c0,9.01-7.33,16.34-16.34,16.34c-9.01,0-16.34-7.33-16.34-16.34c0-4.512-3.658-8.17-8.17-8.17
		c-4.512,0-8.17,3.658-8.17,8.17C223.319,184.148,237.98,198.809,256,198.809z"/>
	<path style="fill:#440852;" d="M231.489,141.617c4.512,0,8.17-3.658,8.17-8.17V111.66c0-4.512-3.658-8.17-8.17-8.17
		c-4.512,0-8.17,3.658-8.17,8.17v21.787C223.319,137.959,226.977,141.617,231.489,141.617z"/>
	<path style="fill:#440852;" d="M280.511,103.489c-4.512,0-8.17,3.658-8.17,8.17v21.787c0,4.512,3.658,8.17,8.17,8.17
		c4.512,0,8.17-3.658,8.17-8.17V111.66C288.681,107.147,285.023,103.489,280.511,103.489z"/>
</g>
</svg>